<?xml version="1.0" encoding="iso-8859-1"?>
<!-- Generator: Adobe Illustrator 18.0.0, SVG Export Plug-In . SVG Version: 6.00 Build 0)  -->
<!DOCTYPE svg PUBLIC "-//W3C//DTD SVG 1.1//EN" "http://www.w3.org/Graphics/SVG/1.1/DTD/svg11.dtd">
<svg version="1.1" id="Capa_1" xmlns="http://www.w3.org/2000/svg" xmlns:xlink="http://www.w3.org/1999/xlink" x="0px" y="0px"
	 viewBox="0 0 321 321" style="enable-background:new 0 0 321 321;" xml:space="preserve">
<g>
	<path d="M215.598,196.152v-49.098c0-7.998-5.315-14.742-12.538-16.815v-5.6c0-22.923-18.283-41.572-40.756-41.572
		c-22.472,0-40.753,18.649-40.753,41.572v5.6c-7.224,2.073-12.539,8.818-12.539,16.815v49.098c0,9.642,7.716,17.485,17.2,17.485
		h72.187C207.882,213.638,215.598,205.794,215.598,196.152z M162.304,103.067c11.444,0,20.756,9.678,20.756,21.572v4.93h-41.509
		v-4.93C141.551,112.745,150.86,103.067,162.304,103.067z M195.598,193.638h-66.586v-44.068h66.586V193.638z"/>
	<path d="M277.146,263.296c0.092-0.129,0.18-0.26,0.265-0.394c0.08-0.125,0.157-0.252,0.231-0.381
		c0.084-0.146,0.166-0.293,0.243-0.443c0.063-0.123,0.122-0.248,0.18-0.374c0.074-0.16,0.146-0.321,0.211-0.485
		c0.05-0.125,0.094-0.251,0.138-0.378c0.059-0.168,0.118-0.336,0.168-0.508c0.04-0.137,0.072-0.276,0.107-0.414
		c0.04-0.164,0.083-0.327,0.115-0.495c0.033-0.173,0.056-0.349,0.08-0.524c0.019-0.137,0.044-0.272,0.057-0.411
		c0.031-0.32,0.049-0.641,0.049-0.965V10c0-5.522-4.478-10-10-10H52.01c-5.522,0-10,4.478-10,10v301c0,5.522,4.478,10,10,10h169.174
		c0.354,0,0.704-0.02,1.049-0.056c0.052-0.006,0.104-0.017,0.156-0.024c0.295-0.036,0.587-0.079,0.873-0.14
		c0.062-0.013,0.121-0.033,0.182-0.047c0.274-0.063,0.546-0.133,0.811-0.219c0.077-0.025,0.151-0.057,0.228-0.083
		c0.243-0.085,0.484-0.174,0.718-0.277c0.097-0.042,0.19-0.092,0.286-0.138c0.206-0.099,0.411-0.199,0.609-0.312
		c0.111-0.063,0.218-0.132,0.327-0.198c0.175-0.108,0.348-0.218,0.515-0.336c0.116-0.082,0.229-0.169,0.342-0.256
		c0.152-0.117,0.302-0.237,0.447-0.363c0.112-0.097,0.222-0.197,0.33-0.3c0.139-0.132,0.274-0.268,0.406-0.408
		c0.058-0.062,0.122-0.116,0.178-0.179l47.807-53.478c0.046-0.052,0.086-0.108,0.131-0.161c0.097-0.113,0.19-0.229,0.282-0.347
		C276.958,263.553,277.054,263.426,277.146,263.296z M62.01,20h196.98v227.522h-37.807c-5.522,0-10,4.478-10,10V301H62.01V20z
		 M246.637,267.522l-15.454,17.287v-17.287H246.637z"/>
</g>
<g>
</g>
<g>
</g>
<g>
</g>
<g>
</g>
<g>
</g>
<g>
</g>
<g>
</g>
<g>
</g>
<g>
</g>
<g>
</g>
<g>
</g>
<g>
</g>
<g>
</g>
<g>
</g>
<g>
</g>
</svg>
